<svg xmlns="http://www.w3.org/2000/svg" viewBox="0 0 1024 1024" width="1024" height="1024" role="img" aria-label="White Tooth Dental Clinic logo">
  <defs>
    <path id="top-arc" d="M 176 394 C 308 220 716 220 848 394" />
    <path id="bottom-arc" d="M 848 650 C 716 824 308 824 176 650" />
    <style>
      .gold { fill: #D4AF37; }
      .label { fill: #D4AF37; font-family: Inter, Avenir, Helvetica, Arial, sans-serif; font-weight: 700; letter-spacing: 3px; }
      .tag { fill: #D4AF37; font-family: Inter, Avenir, Helvetica, Arial, sans-serif; font-weight: 600; letter-spacing: 1px; }
    </style>
  </defs>

  <rect width="1024" height="1024" fill="#111111" />

  <circle cx="512" cy="512" r="404" fill="none" stroke="#D4AF37" stroke-width="18" />
  <circle cx="512" cy="512" r="372" fill="none" stroke="#FFFFFF" stroke-width="6" opacity="0.95" />

  <text class="label" font-size="68">
    <textPath href="#top-arc" startOffset="50%" text-anchor="middle">WHITE TOOTH DENTAL CLINIC</textPath>
  </text>

  <text class="tag" font-size="64">
    <textPath href="#bottom-arc" startOffset="50%" text-anchor="middle">Gentle Hands. Strong Results.</textPath>
  </text>

  <g transform="translate(512 560)">
    <path class="gold" d="M -85 -176 C -124 -176 -154 -143 -154 -104 C -154 -40 -133 9 -135 63 C -138 126 -179 164 -179 227 C -179 306 -121 365 -43 365 C -8 365 15 349 29 323 C 43 349 66 365 101 365 C 179 365 237 306 237 227 C 237 164 196 126 193 63 C 191 9 212 -40 212 -104 C 212 -143 182 -176 143 -176 C 110 -176 89 -161 67 -130 C 58 -118 49 -101 40 -92 C 31 -101 22 -118 13 -130 C -9 -161 -30 -176 -63 -176 Z" />
    <path d="M -170 -18 C -118 -99 -31 -137 59 -138 C 132 -139 198 -113 236 -78" fill="none" stroke="#FFFFFF" stroke-width="16" stroke-linecap="round" stroke-linejoin="round" />
    <path d="M -135 -2 C -78 -75 -7 -112 62 -114 C 119 -116 174 -99 210 -71" fill="none" stroke="#111111" stroke-width="6" stroke-linecap="round" stroke-linejoin="round" opacity="0.85" />
  </g>
</svg>