<svg xmlns="http://www.w3.org/2000/svg" viewBox="0 0 512 512" role="img" aria-label="White Tooth Dental Clinic icon">
  <defs>
    <linearGradient id="goldFill" x1="0" y1="0" x2="1" y2="1">
      <stop offset="0%" stop-color="#F7DB7A" />
      <stop offset="100%" stop-color="#D4AF37" />
    </linearGradient>
  </defs>

  <rect width="512" height="512" fill="none" />
  <g transform="translate(256 278) scale(0.58)">
    <path fill="url(#goldFill)" d="M -85 -176 C -124 -176 -154 -143 -154 -104 C -154 -40 -133 9 -135 63 C -138 126 -179 164 -179 227 C -179 306 -121 365 -43 365 C -8 365 15 349 29 323 C 43 349 66 365 101 365 C 179 365 237 306 237 227 C 237 164 196 126 193 63 C 191 9 212 -40 212 -104 C 212 -143 182 -176 143 -176 C 110 -176 89 -161 67 -130 C 58 -118 49 -101 40 -92 C 31 -101 22 -118 13 -130 C -9 -161 -30 -176 -63 -176 Z" />
    <path d="M -170 -18 C -118 -99 -31 -137 59 -138 C 132 -139 198 -113 236 -78" fill="none" stroke="#111111" stroke-width="18" stroke-linecap="round" stroke-linejoin="round" />
    <path d="M -135 -2 C -78 -75 -7 -112 62 -114 C 119 -116 174 -99 210 -71" fill="none" stroke="#FFFFFF" stroke-width="7" stroke-linecap="round" stroke-linejoin="round" opacity="0.95" />
  </g>
</svg>